<svg width="449" height="512" viewBox="0 0 449 512" fill="none" xmlns="http://www.w3.org/2000/svg">
<path fill-rule="evenodd" clip-rule="evenodd" d="M203.769 0.972663C193.647 4.28166 185.34 11.5467 181.781 20.2037C180.792 22.6077 179.68 24.5767 179.31 24.5787C178.939 24.5807 177.291 23.4507 175.647 22.0677C171.323 18.4287 162.514 14.6467 155.804 13.5477C146.84 12.0797 128.998 12.3407 125.031 13.9977C119.645 16.2487 119.287 17.8077 119.653 37.4157C119.981 54.9847 120.001 55.1187 123.2 61.6567C126.877 69.1707 134.845 77.3267 141.817 80.7137L146.34 82.9117L142.041 86.1947C137.016 90.0307 131.953 97.2697 130.27 103.024C129.617 105.256 129.081 110.233 129.079 114.083C129.077 119.807 129.653 122.359 132.242 128.083C133.984 131.933 135.843 137.558 136.373 140.583C136.903 143.608 137.643 146.87 138.017 147.833C138.642 149.441 137.693 149.586 126.34 149.618C118.359 149.641 113.183 150.098 111.724 150.909C110.481 151.599 97.4088 168.57 82.6758 188.623L55.8867 225.083L39.4348 225.621C26.9038 226.03 22.0477 226.572 19.0597 227.892C12.4127 230.829 6.84975 236.16 3.55875 242.748C-2.92325 255.719 0.51975 271.823 11.6577 280.627C17.5897 285.316 24.5987 287.583 33.1647 287.583H39.4827V307.583V327.583H32.5977C23.1517 327.583 16.3647 329.984 10.2357 335.495C3.23375 341.791 0.50275 347.988 0.50275 357.583C0.50275 367.178 3.23375 373.375 10.2357 379.671C16.3647 385.182 23.1517 387.583 32.5977 387.583H39.4827V407.583V427.583L27.2327 427.605C17.5168 427.622 14.1467 428.007 10.9417 429.463C6.39975 431.525 1.85875 436.396 0.73275 440.41C-0.24425 443.893 -0.24425 495.273 0.73275 498.756C1.85875 502.77 6.39975 507.641 10.9417 509.703C14.8207 511.466 23.3658 511.539 224.483 511.539C425.6 511.539 434.145 511.466 438.024 509.703C442.566 507.641 447.107 502.77 448.233 498.756C449.21 495.273 449.21 443.893 448.233 440.41C447.107 436.396 442.566 431.525 438.024 429.463C434.819 428.007 431.449 427.622 421.733 427.605L409.483 427.583V407.705V387.828L418.233 387.382C428.372 386.867 434.582 384.249 440.678 377.919C446.267 372.117 448.437 366.441 448.451 357.583C448.467 347.991 445.742 341.799 438.73 335.495C432.601 329.984 425.814 327.583 416.368 327.583H409.483V307.583V287.583H415.801C429.417 287.583 439.842 281.556 445.373 270.487C448.043 265.144 448.483 263.176 448.483 256.583C448.483 250.024 448.038 248.012 445.436 242.805C442.01 235.948 437.252 231.288 430.534 228.208C426.706 226.452 423.368 226.039 409.51 225.602L393.037 225.083L366.281 188.63C351.566 168.58 338.504 151.609 337.254 150.915C335.781 150.097 330.641 149.641 322.626 149.618C313.03 149.591 310.378 149.298 310.759 148.307C311.028 147.606 311.774 144.343 312.416 141.057C313.059 137.771 315.01 131.933 316.751 128.083C319.441 122.136 319.907 119.955 319.846 113.583C319.735 101.864 315.361 92.6357 306.833 86.1237L302.626 82.9117L307.149 80.7137C314.121 77.3267 322.089 69.1707 325.766 61.6567C328.965 55.1187 328.985 54.9847 329.313 37.4157C329.679 17.8077 329.321 16.2487 323.935 13.9977C319.968 12.3407 302.126 12.0797 293.162 13.5477C286.452 14.6467 277.643 18.4287 273.319 22.0677C271.675 23.4507 270.027 24.5807 269.656 24.5787C269.286 24.5767 268.161 22.5757 267.156 20.1327C264.341 13.2877 258.257 7.08866 250.701 3.36966C243.682 -0.0863373 244.41 -0.0103371 224.733 0.652663C223.221 0.703663 218.833 0.486663 214.983 0.170663C210.298 -0.214337 206.59 0.0516628 203.769 0.972663ZM219.733 21.2757C224.245 22.8927 224.737 22.8867 229.541 21.1587C241.377 16.9027 250.483 23.7247 250.483 36.8467C250.483 41.3987 250.978 42.9307 253.457 46.0507C257.041 50.5607 258.08 55.2447 256.533 59.9297C254.933 64.7797 250.925 68.4427 245.812 69.7297C242.505 70.5627 240.483 71.9987 237.349 75.7427C228.462 86.3567 220.504 86.3567 211.617 75.7427C208.483 71.9987 206.461 70.5627 203.154 69.7297C192.367 67.0137 188.226 54.7947 195.261 46.4347C197.451 43.8317 198.069 41.8797 198.545 36.0567C199.213 27.8897 201.445 23.8367 206.701 21.2457C210.922 19.1647 213.864 19.1717 219.733 21.2757ZM154.982 33.6867C157.393 34.2937 161.253 36.4067 163.56 38.3807C169.426 43.4017 171.434 48.3457 171.461 57.8327L171.483 65.5827H164.849C156.506 65.5827 151.6 64.1277 146.91 60.2617C141.479 55.7847 139.531 50.6757 139.505 40.8327L139.483 32.5827H145.04C148.097 32.5827 152.57 33.0797 154.982 33.6867ZM309.461 40.8327C309.435 50.6757 307.487 55.7847 302.056 60.2617C297.366 64.1277 292.46 65.5827 284.117 65.5827H277.483L277.505 57.8327C277.532 48.3337 279.54 43.4017 285.436 38.3557C290.33 34.1657 294.523 32.8297 303.233 32.6857L309.483 32.5827L309.461 40.8327ZM219.309 41.2947C212.815 45.3237 213.192 55.3067 219.955 58.3877C225.086 60.7257 230.678 59.0397 233.058 54.4377C234.926 50.8257 234.858 48.0257 232.818 44.5727C229.904 39.6397 224.206 38.2567 219.309 41.2947ZM188.202 87.3327C189.955 88.2957 192.705 90.9147 194.313 93.1537C196.58 96.3107 198.602 97.7227 203.319 99.4427C214.782 103.623 217.854 113.808 210.457 123.115C207.978 126.235 207.483 127.767 207.483 132.319C207.483 145.441 198.377 152.263 186.541 148.007C181.737 146.279 181.245 146.273 176.733 147.89C170.583 150.095 168.281 150.031 163.359 147.52C158.746 145.167 155.19 138.674 155.557 133.277C155.914 128.021 155.615 127.024 152.509 123.115C145.231 113.958 148.871 102.94 160.444 99.0957C163.954 97.9297 166.373 96.1557 169.486 92.4647C171.823 89.6927 174.691 87.0387 175.859 86.5677C179.388 85.1417 184.826 85.4797 188.202 87.3327ZM278.975 91.9347C282.561 95.9447 285.313 97.9877 288.669 99.1307C299.705 102.891 303.781 114.322 296.971 122.414C293.703 126.298 292.414 129.986 293.109 133.461C294.058 138.21 290.394 145.078 285.607 147.52C280.685 150.031 278.383 150.095 272.233 147.89C267.721 146.273 267.229 146.279 262.425 148.007C250.589 152.263 241.483 145.441 241.483 132.319C241.483 127.767 240.988 126.235 238.509 123.115C231.112 113.808 234.184 103.623 245.647 99.4427C250.364 97.7227 252.386 96.3107 254.653 93.1537C258.786 87.3977 262.814 85.3567 268.975 85.8977C273.558 86.2997 274.376 86.7937 278.975 91.9347ZM176.593 110.979C173.63 112.621 171.565 116.218 171.518 119.817C171.468 123.743 176.119 128.515 180.706 129.244C184.028 129.772 184.825 129.441 188.084 126.182C191.43 122.836 191.691 122.171 191.173 118.307C190.185 110.945 183.089 107.378 176.593 110.979ZM261.155 111.626C255.956 115.716 256.731 124.526 262.596 127.991C270.456 132.634 279.991 124.052 276.455 115.516C274.11 109.854 266.023 107.797 261.155 111.626ZM348.055 197.583L368.252 225.083L296.367 225.34C256.831 225.481 192.133 225.481 152.594 225.34L80.7048 225.083L92.8438 208.565C99.5198 199.48 108.695 186.991 113.232 180.81L121.481 169.574L224.67 169.828L327.859 170.083L348.055 197.583ZM423.51 247.287C427.491 250.031 428.417 251.801 428.451 256.729C428.479 260.815 428.056 261.75 424.948 264.479L421.413 267.583H344.399C260.785 267.583 263.244 267.422 260.678 273.055C258.34 278.186 260.026 283.778 264.628 286.158C266.925 287.346 277.551 287.583 328.433 287.583H389.483V357.583V427.583H224.483H59.4827V357.583V287.583H120.436C165.563 287.583 182.07 287.273 184.011 286.388C186.877 285.082 189.483 280.889 189.483 277.583C189.483 274.277 186.877 270.084 184.011 268.778C182.051 267.885 162.018 267.583 104.658 267.583C34.0028 267.583 27.7317 267.448 25.4557 265.879C21.4857 263.143 20.5467 261.364 20.5467 256.583C20.5467 251.802 21.4857 250.023 25.4557 247.287C27.7637 245.696 40.9378 245.583 224.483 245.583C408.028 245.583 421.202 245.696 423.51 247.287ZM219.593 268.979C210.924 273.784 214.551 287.583 224.483 287.583C229.55 287.583 234.483 282.698 234.483 277.68C234.483 270.172 226.186 265.324 219.593 268.979ZM173.483 328.5C165.432 331.016 157.903 337.237 153.79 344.773C151.218 349.484 151.218 365.682 153.79 370.393C156.764 375.841 162.539 381.571 167.92 384.411L172.983 387.083H224.483H275.983L281.106 384.38C287.666 380.92 293.915 373.81 296.052 367.374C298.111 361.177 297.619 349.65 295.088 344.773C292.325 339.451 286.496 333.632 281.046 330.755L275.983 328.083L225.983 327.901C198.483 327.801 174.858 328.071 173.483 328.5ZM39.4827 357.696V367.809L32.3618 367.406C26.0768 367.051 24.9628 366.679 22.8618 364.238C19.3558 360.161 19.5868 354.326 23.4058 350.506C26.0438 347.868 26.9697 347.583 32.9057 347.583H39.4827V357.696ZM275.07 350.889C278.343 354.695 278.343 360.472 275.07 364.277L272.656 367.083H224.483H176.31L173.896 364.277C169.666 359.359 171.26 350.85 176.84 348.56C178.019 348.076 200.06 347.771 225.82 347.881L272.657 348.083L275.07 350.889ZM426.104 350.928C427.727 352.816 428.483 354.93 428.483 357.583C428.483 360.236 427.727 362.35 426.104 364.238C424.003 366.679 422.889 367.051 416.604 367.406L409.483 367.809V357.583V347.357L416.604 347.76C422.889 348.115 424.003 348.487 426.104 350.928ZM429.483 469.583V491.583H224.483H19.4827V469.583V447.583H224.483H429.483V469.583Z" fill="black"/>
</svg>
