<svg width="481" height="480" viewBox="0 0 481 480" fill="none" xmlns="http://www.w3.org/2000/svg">
<path fill-rule="evenodd" clip-rule="evenodd" d="M94.6356 0.777292C88.4196 2.24829 79.3466 7.59129 74.9296 12.3833C72.6846 14.8193 69.4226 19.8193 67.6826 23.4923L64.5176 30.1723L64.2376 106.938L63.9586 183.703L66.4426 186.188C69.7196 189.465 74.3036 189.477 77.5626 186.217L80.0176 183.763V110.083C80.0176 55.1583 80.3277 35.3563 81.2337 32.2883C82.8567 26.7953 91.1406 18.5113 96.6336 16.8883C99.7866 15.9563 136.644 15.6723 254.201 15.6723H407.653L404.085 22.8573L400.518 30.0413L400.226 81.8603L399.934 133.678L402.43 136.175C405.72 139.465 410.298 139.483 413.563 136.217L416.018 133.763V106.717V79.6723H445.563H475.109L477.646 77.1353L480.183 74.5973L479.851 52.3853L479.518 30.1723L476.353 23.4923C471.949 14.1963 466.28 8.40529 457.179 3.90729L449.622 0.172292L274.07 0.0162919C170.322 -0.0767081 96.9296 0.235292 94.6356 0.777292ZM447.402 16.8883C452.895 18.5113 461.179 26.7953 462.802 32.2883C463.496 34.6373 464.018 42.2563 464.018 50.0383V63.6723H440.018H416.018V50.0383C416.018 33.0743 416.965 29.6603 423.484 23.1273C430.499 16.0973 438.055 14.1263 447.402 16.8883ZM162.473 50.1273C160.038 52.5613 160.018 52.7363 160.018 71.6723C160.018 90.6083 160.038 90.7833 162.473 93.2173L164.927 95.6723H240.018H315.109L317.563 93.2173C319.998 90.7833 320.018 90.6083 320.018 71.6723C320.018 52.7363 319.998 52.5613 317.563 50.1273L315.109 47.6723H240.018H164.927L162.473 50.1273ZM304.018 71.6723V79.6723H240.018H176.018V71.6723V63.6723H240.018H304.018V71.6723ZM194.473 122.127C192.925 123.674 192.018 125.724 192.018 127.672C192.018 129.62 192.925 131.67 194.473 133.217L196.927 135.672H240.018H283.109L285.563 133.217C287.111 131.67 288.018 129.62 288.018 127.672C288.018 125.724 287.111 123.674 285.563 122.127L283.109 119.672H240.018H196.927L194.473 122.127ZM447.341 121.31C441.717 123.303 436.549 129.168 429.592 141.455C424.002 151.328 423.691 151.672 420.347 151.672C418.444 151.672 416.072 152.108 415.076 152.641C414.08 153.174 410.735 158.012 407.642 163.391C404.55 168.771 401.605 173.816 401.098 174.603C400.333 175.791 399.1 175.461 393.855 172.666C388.68 169.908 386.437 169.297 381.479 169.297C374.864 169.297 367.962 171.957 364.266 175.931C363.119 177.163 354.495 191.492 345.1 207.772C327.166 238.85 325.766 242.333 329.768 245.939C332.326 248.245 336.172 248.869 338.955 247.431C340.583 246.59 347.051 236.39 358.455 216.681C378.011 182.882 377.985 182.91 386.206 186.76C388.925 188.034 391.35 189.399 391.594 189.795C391.839 190.191 375.451 219.238 355.176 254.344C334.902 289.449 317.574 319.608 316.671 321.362C315.42 323.793 314.886 328.674 314.432 341.862C313.876 358 313.974 359.433 315.874 363.03L317.913 366.889L314.965 372.111C311.406 378.419 311.291 380.716 314.36 384.283C319.048 389.734 325.136 387.257 330.221 377.83C331.708 375.074 332.449 374.672 336.037 374.672C341.084 374.672 341.407 374.511 357.708 363.821L370.899 355.172L392.958 316.988C405.091 295.986 415.018 277.839 415.018 276.661C415.018 274.026 409.84 268.659 407.345 268.707C402.773 268.796 400.354 272.176 381.544 304.755C370.933 323.135 361.935 338.128 361.548 338.073C359.71 337.815 335.018 323.152 335.018 322.319C335.018 321.147 403.792 201.716 405.579 199.785C406.659 198.619 409.006 199.639 420.384 206.223C427.82 210.526 433.758 214.3 433.58 214.609C418.406 240.901 415.018 247.195 415.018 249.098C415.018 250.366 415.951 252.588 417.091 254.037C418.693 256.074 420.043 256.672 423.04 256.672C427.766 256.672 428.518 255.749 439.54 236.422C443.852 228.86 447.738 222.672 448.175 222.672C448.612 222.672 450.443 223.57 452.244 224.668C454.045 225.766 456.88 226.666 458.545 226.668C467.286 226.679 469.706 216.177 461.952 211.881C455.245 208.165 455.21 209.093 462.534 196.402C469.561 184.228 470.098 181.655 466.462 177.618C465.242 176.263 465.844 174.72 471.138 165.618C474.48 159.873 477.845 153.428 478.616 151.296C481.777 142.558 479.7 134.287 472.552 127.138C465.266 119.853 456.907 117.92 447.341 121.31ZM461.563 138.127C462.913 139.477 464.018 141.742 464.018 143.161C464.018 144.58 461.075 150.867 457.477 157.132L450.936 168.524L443.956 164.499L436.977 160.475L438.874 157.324C439.918 155.59 442.892 150.46 445.482 145.923C448.072 141.386 450.94 137.237 451.855 136.703C454.844 134.959 459.005 135.569 461.563 138.127ZM162.473 162.127C160.925 163.674 160.018 165.724 160.018 167.672C160.018 169.62 160.925 171.67 162.473 173.217L164.927 175.672H240.018H315.109L317.563 173.217C320.811 169.97 320.811 165.374 317.563 162.127L315.109 159.672H240.018H164.927L162.473 162.127ZM435.935 178.274C443.131 182.456 449.018 186.288 449.018 186.79C449.018 188.017 443.049 198.535 441.976 199.198C441.508 199.487 435.061 196.224 427.648 191.948L414.171 184.172L417.253 178.672C420.32 173.2 421.996 170.672 422.558 170.672C422.72 170.672 428.739 174.093 435.935 178.274ZM51.4096 225.033C23.8506 243.433 1.01265 259.242 0.659649 260.162C-0.608351 263.466 0.0596483 266.805 2.47265 269.217L4.92665 271.672H82.4726H160.018V319.672V367.672H148.018H136.018V346.038C136.018 332.217 135.589 322.971 134.829 320.436C133.087 314.621 125.985 307.19 120.328 305.262C114.625 303.319 94.7396 303.084 88.6336 304.888C83.1406 306.511 74.8567 314.795 73.2337 320.288C72.4437 322.964 72.0176 331.975 72.0176 346.038V367.672H60.0176H48.0176V330.127V292.581L45.5626 290.127C44.0156 288.579 41.9656 287.672 40.0176 287.672C38.0696 287.672 36.0196 288.579 34.4726 290.127L32.0176 292.581V335.672V378.763L34.4726 381.217L36.9266 383.672H104.018H171.109L173.563 381.217L176.018 378.763V325.217V271.672H189.563C202.612 271.672 203.199 271.582 205.563 269.217C207.975 266.806 208.644 263.466 207.377 260.165C206.378 257.561 108.049 192.321 104.518 191.918C101.986 191.63 93.7036 196.794 51.4096 225.033ZM162.473 202.127C160.925 203.674 160.018 205.724 160.018 207.672C160.018 209.62 160.925 211.67 162.473 213.217L164.927 215.672H244.018H323.109L325.563 213.217C327.111 211.67 328.018 209.62 328.018 207.672C328.018 205.724 327.111 203.674 325.563 202.127L323.109 199.672H244.018H164.927L162.473 202.127ZM139.018 232.672L173.518 255.671H104.018H34.5176L69.0176 232.672C87.9926 220.023 103.743 209.673 104.018 209.673C104.293 209.673 120.043 220.023 139.018 232.672ZM226.473 242.127C224.925 243.674 224.018 245.724 224.018 247.672C224.018 249.62 224.925 251.67 226.473 253.217L228.927 255.672H268.018H307.109L309.563 253.217C311.111 251.67 312.018 249.62 312.018 247.672C312.018 245.724 311.111 243.674 309.563 242.127L307.109 239.672H268.018H228.927L226.473 242.127ZM194.473 290.127C192.925 291.674 192.018 293.724 192.018 295.672C192.018 297.62 192.925 299.67 194.473 301.217L196.927 303.672H252.018H307.109L309.563 301.217C311.111 299.67 312.018 297.62 312.018 295.672C312.018 293.724 311.111 291.674 309.563 290.127L307.109 287.672H252.018H196.927L194.473 290.127ZM117.563 322.127C120.018 324.581 120.018 324.584 120.018 346.127V367.672H104.018H88.0176V346.127C88.0176 324.584 88.0176 324.581 90.4726 322.127C92.7836 319.816 93.5756 319.672 104.018 319.672C114.46 319.672 115.252 319.816 117.563 322.127ZM404.518 323.88C400 326.471 400.083 325.326 400.05 385.556C400.026 427.605 399.693 444.04 398.802 447.056C397.179 452.549 388.895 460.833 383.402 462.456C374.026 465.226 366.551 463.273 359.484 456.206C353.165 449.887 352.018 446.131 352.018 431.761C352.018 421.224 351.877 420.44 349.563 418.127L347.109 415.672H176.018H4.92665L2.36265 418.236C-0.189352 420.788 -0.199351 420.865 0.179649 434.986C0.540649 448.414 0.728649 449.529 3.70365 455.852C8.07065 465.132 13.7436 470.933 22.8576 475.437L30.4136 479.172H208.018H385.622L393.178 475.437C402.28 470.939 407.949 465.149 412.353 455.852L415.518 449.172L415.806 389.177C416.015 345.457 415.782 328.6 414.946 327.037C413.807 324.91 410.031 322.644 407.721 322.702C407.059 322.719 405.618 323.249 404.518 323.88ZM210.473 330.127C208.925 331.674 208.018 333.724 208.018 335.672C208.018 337.62 208.925 339.67 210.473 341.217L212.927 343.672H244.018H275.109L277.563 341.217C279.111 339.67 280.018 337.62 280.018 335.672C280.018 333.724 279.111 331.674 277.563 330.127L275.109 327.672H244.018H212.927L210.473 330.127ZM338.395 343.615C350.601 350.373 350.35 349.772 342.943 354.516C332.259 361.357 330.018 360.223 330.018 347.972C330.018 343.407 330.3 339.672 330.645 339.672C330.99 339.672 334.477 341.447 338.395 343.615ZM336.258 440.744C336.698 448.47 337.286 450.845 340.214 456.744L343.653 463.672H190.201C72.6437 463.672 35.7866 463.388 32.6336 462.456C30.0406 461.69 26.6556 459.377 23.4836 456.206C17.8156 450.538 16.0176 445.986 16.0176 437.306V431.672H175.879H335.741L336.258 440.744Z" fill="#2D2DB3"/>
</svg>
