<svg width="124" height="64" viewBox="0 0 124 64" fill="none" xmlns="http://www.w3.org/2000/svg">
<path d="M8.84533 42C6.91644 42 5.40089 41.4902 4.29867 40.4707C3.224 39.4236 2.68667 37.9769 2.68667 36.1307V14.844C2.68667 14.1551 2.89333 13.6178 3.30667 13.232C3.72 12.8462 4.28489 12.6533 5.00133 12.6533C5.71778 12.6533 6.28267 12.86 6.696 13.2733C7.13689 13.6591 7.35733 14.1827 7.35733 14.844V36.172C7.35733 36.8333 7.52267 37.3569 7.85333 37.7427C8.21156 38.1284 8.69378 38.3213 9.3 38.3213H22.692C24.18 38.3213 24.924 38.9413 24.924 40.1813C24.924 40.76 24.7311 41.2147 24.3453 41.5453C23.9596 41.8484 23.4084 42 22.692 42H8.84533ZM31.5267 18.1507C30.6449 18.1507 29.9147 17.9027 29.336 17.4067C28.7849 16.8831 28.5093 16.2218 28.5093 15.4227C28.5093 14.6236 28.7849 13.976 29.336 13.48C29.9147 12.9564 30.6449 12.6947 31.5267 12.6947C32.4085 12.6947 33.1387 12.9564 33.7173 13.48C34.296 13.976 34.5853 14.6236 34.5853 15.4227C34.5853 16.2218 34.296 16.8831 33.7173 17.4067C33.1387 17.9027 32.4085 18.1507 31.5267 18.1507ZM31.5267 42.4133C30.8102 42.4133 30.2453 42.2204 29.832 41.8347C29.4462 41.4489 29.2533 40.9116 29.2533 40.2227V23.524C29.2533 22.8351 29.4462 22.2978 29.832 21.912C30.2453 21.5262 30.8102 21.3333 31.5267 21.3333C32.2431 21.3333 32.808 21.5262 33.2213 21.912C33.6622 22.2978 33.8827 22.8351 33.8827 23.524V40.2227C33.8827 40.9116 33.6622 41.4489 33.2213 41.8347C32.808 42.2204 32.2431 42.4133 31.5267 42.4133ZM50.4112 42.4133C48.0138 42.4133 45.9058 41.9724 44.0872 41.0907C42.2685 40.1813 40.8632 38.9276 39.8712 37.3293C38.9067 35.7311 38.4245 33.9124 38.4245 31.8733C38.4245 29.8342 38.9067 28.0156 39.8712 26.4173C40.8632 24.8191 42.2685 23.5791 44.0872 22.6973C45.9058 21.788 48.0138 21.3333 50.4112 21.3333C52.8085 21.3333 54.9165 21.788 56.7352 22.6973C58.5538 23.5791 59.9454 24.8191 60.9098 26.4173C61.9018 28.0156 62.3978 29.8342 62.3978 31.8733C62.3978 33.9124 61.9018 35.7311 60.9098 37.3293C59.9454 38.9276 58.5538 40.1813 56.7352 41.0907C54.9165 41.9724 52.8085 42.4133 50.4112 42.4133ZM50.4112 38.6933C52.6432 38.6933 54.4205 38.0871 55.7432 36.8747C57.0658 35.6622 57.7272 33.9951 57.7272 31.8733C57.7272 29.7516 57.0658 28.0844 55.7432 26.872C54.4205 25.6596 52.6432 25.0533 50.4112 25.0533C48.1516 25.0533 46.3605 25.6596 45.0378 26.872C43.7427 28.0844 43.0952 29.7516 43.0952 31.8733C43.0952 33.9951 43.7427 35.6622 45.0378 36.8747C46.3605 38.0871 48.1516 38.6933 50.4112 38.6933ZM67.9594 42.4133C67.243 42.4133 66.6781 42.2204 66.2648 41.8347C65.8514 41.4489 65.6448 40.9116 65.6448 40.2227V23.524C65.6448 22.8351 65.8376 22.2978 66.2234 21.912C66.6368 21.5262 67.1879 21.3333 67.8768 21.3333C68.5932 21.3333 69.1443 21.5262 69.5301 21.912C69.9434 22.2978 70.1501 22.8351 70.1501 23.524V25.136C72.1892 22.6009 74.9172 21.3333 78.3341 21.3333C80.9519 21.3333 83.0048 22.1324 84.4928 23.7307C86.0083 25.3289 86.7661 27.5333 86.7661 30.344V40.2227C86.7661 40.9116 86.5456 41.4489 86.1048 41.8347C85.6914 42.2204 85.1265 42.4133 84.4101 42.4133C83.6936 42.4133 83.1288 42.2204 82.7154 41.8347C82.3296 41.4489 82.1368 40.9116 82.1368 40.2227V30.344C82.1368 28.6356 81.7234 27.3267 80.8968 26.4173C80.0701 25.508 78.899 25.0533 77.3834 25.0533C75.179 25.0533 73.443 25.7147 72.1754 27.0373C70.9079 28.3324 70.2741 30.096 70.2741 32.328V40.2227C70.2741 40.884 70.0536 41.4213 69.6128 41.8347C69.1994 42.2204 68.6483 42.4133 67.9594 42.4133ZM94.0514 18.1507C93.1696 18.1507 92.4394 17.9027 91.8607 17.4067C91.3096 16.8831 91.0341 16.2218 91.0341 15.4227C91.0341 14.6236 91.3096 13.976 91.8607 13.48C92.4394 12.9564 93.1696 12.6947 94.0514 12.6947C94.9332 12.6947 95.6634 12.9564 96.2421 13.48C96.8207 13.976 97.1101 14.6236 97.1101 15.4227C97.1101 16.2218 96.8207 16.8831 96.2421 17.4067C95.6634 17.9027 94.9332 18.1507 94.0514 18.1507ZM94.0514 42.4133C93.335 42.4133 92.7701 42.2204 92.3567 41.8347C91.971 41.4489 91.7781 40.9116 91.7781 40.2227V23.524C91.7781 22.8351 91.971 22.2978 92.3567 21.912C92.7701 21.5262 93.335 21.3333 94.0514 21.3333C94.7679 21.3333 95.3327 21.5262 95.7461 21.912C96.187 22.2978 96.4074 22.8351 96.4074 23.524V40.2227C96.4074 40.9116 96.187 41.4489 95.7461 41.8347C95.3327 42.2204 94.7679 42.4133 94.0514 42.4133ZM112.399 42.4133C108.844 42.4133 106.047 41.4764 104.008 39.6027C101.969 37.7289 100.949 35.1387 100.949 31.832C100.949 28.5804 101.969 26.0178 104.008 24.144C106.047 22.2702 108.844 21.3333 112.399 21.3333C114.383 21.3333 116.16 21.6502 117.731 22.284C119.301 22.9178 120.541 23.8133 121.451 24.9707C121.754 25.3564 121.905 25.7422 121.905 26.128C121.905 26.7618 121.575 27.3129 120.913 27.7813C120.61 28.0018 120.266 28.112 119.88 28.112C119.108 28.112 118.447 27.8089 117.896 27.2027C117.262 26.5138 116.477 25.9902 115.54 25.632C114.603 25.2462 113.556 25.0533 112.399 25.0533C110.249 25.0533 108.582 25.6458 107.397 26.8307C106.212 28.0156 105.62 29.6827 105.62 31.832C105.62 34.0089 106.212 35.7036 107.397 36.916C108.582 38.1009 110.249 38.6933 112.399 38.6933C114.796 38.6933 116.794 37.9218 118.392 36.3787C119.053 35.7173 119.701 35.3867 120.335 35.3867C120.803 35.3867 121.203 35.5382 121.533 35.8413C122.112 36.2822 122.401 36.8196 122.401 37.4533C122.401 37.9218 122.222 38.3213 121.864 38.652C120.569 39.9471 119.15 40.8978 117.607 41.504C116.091 42.1102 114.355 42.4133 112.399 42.4133Z" fill="white"/>
<path d="M57.0615 60.3857C56.6641 60.3857 56.3548 60.2815 56.1333 60.0731C55.9119 59.8582 55.8011 59.5651 55.8011 59.1938V53.8399C55.8011 53.7161 55.8337 53.6217 55.8988 53.5566C55.964 53.4849 56.0519 53.4491 56.1626 53.4491C56.2799 53.4491 56.371 53.4849 56.4362 53.5566C56.5013 53.6217 56.5339 53.7161 56.5339 53.8399V59.2134C56.5339 59.3827 56.5795 59.5195 56.6707 59.6237C56.7684 59.7279 56.8954 59.78 57.0517 59.78H60.3051C60.5591 59.78 60.6861 59.881 60.6861 60.0829C60.6861 60.1806 60.6535 60.2555 60.5884 60.3076C60.5233 60.3597 60.4288 60.3857 60.3051 60.3857H57.0615ZM63.7639 60.4834C62.9172 60.4834 62.2626 60.2652 61.8002 59.8289C61.3377 59.3925 61.1065 58.7737 61.1065 57.9726C61.1065 57.204 61.341 56.6015 61.8099 56.1651C62.2789 55.7222 62.9204 55.5008 63.7346 55.5008C64.2361 55.5008 64.6823 55.5822 65.0731 55.745C65.4639 55.9014 65.7667 56.1261 65.9817 56.4192C66.2031 56.7057 66.3139 57.0347 66.3139 57.4059C66.3139 57.6795 66.2357 57.8912 66.0794 58.041C65.9296 58.1908 65.7212 58.2657 65.4541 58.2657H61.8392C61.8392 58.7672 62.0086 59.1612 62.3473 59.4478C62.686 59.7279 63.1582 59.8679 63.7639 59.8679C64.1352 59.8679 64.4543 59.8289 64.7214 59.7507C64.9884 59.666 65.2392 59.5325 65.4737 59.3501C65.5974 59.2459 65.6984 59.1938 65.7765 59.1938C65.8351 59.1938 65.8905 59.2199 65.9426 59.272C66.0338 59.3501 66.0794 59.4315 66.0794 59.5162C66.0794 59.5814 66.0403 59.653 65.9621 59.7312C65.6951 59.9852 65.3825 60.1741 65.0242 60.2978C64.666 60.4216 64.2459 60.4834 63.7639 60.4834ZM65.2392 57.6892C65.3564 57.6892 65.4443 57.6664 65.503 57.6209C65.5616 57.5688 65.5909 57.4776 65.5909 57.3473C65.5909 57.1128 65.5127 56.9011 65.3564 56.7123C65.2001 56.5234 64.9786 56.3768 64.6921 56.2726C64.412 56.1684 64.0928 56.1163 63.7346 56.1163C63.1549 56.1163 62.6957 56.2596 62.357 56.5462C62.0249 56.8262 61.8588 57.2073 61.8588 57.6892H65.2392ZM69.7779 62.838C69.309 62.838 68.8856 62.7696 68.5078 62.6328C68.13 62.496 67.8239 62.2974 67.5894 62.0369C67.5373 61.9848 67.5113 61.9196 67.5113 61.8415C67.5113 61.7438 67.5634 61.6591 67.6676 61.5874C67.7327 61.5418 67.7946 61.5191 67.8532 61.5191C67.9509 61.5191 68.0486 61.5712 68.1463 61.6754C68.3027 61.8447 68.5111 61.9815 68.7716 62.0857C69.0321 62.1899 69.3448 62.242 69.7095 62.242C70.3478 62.242 70.8363 62.089 71.175 61.7828C71.5137 61.4767 71.683 61.0338 71.683 60.4541V59.5358C71.4616 59.8289 71.1717 60.0698 70.8135 60.2587C70.4553 60.4411 70.0384 60.5323 69.563 60.5323C68.7358 60.5323 68.0975 60.3108 67.6481 59.8679C67.1987 59.425 66.9739 58.8323 66.9739 58.0898C66.9739 57.5883 67.0716 57.1454 67.267 56.7611C67.469 56.3703 67.7686 56.0642 68.1659 55.8427C68.5632 55.6148 69.0517 55.5008 69.6314 55.5008C70.0612 55.5008 70.4488 55.5887 70.794 55.7646C71.1392 55.9404 71.4355 56.1912 71.683 56.5169V55.872C71.683 55.7678 71.7156 55.6799 71.7807 55.6083C71.8524 55.5366 71.9403 55.5008 72.0445 55.5008C72.1487 55.5008 72.2334 55.5366 72.2985 55.6083C72.3637 55.6734 72.3962 55.7613 72.3962 55.872V60.4541C72.3962 60.9426 72.2855 61.366 72.0641 61.7242C71.8491 62.0825 71.543 62.356 71.1457 62.5449C70.7484 62.7403 70.2925 62.838 69.7779 62.838ZM69.6314 59.8972C69.9831 59.8972 70.312 59.8289 70.6181 59.6921C70.9308 59.5553 71.1848 59.3469 71.3802 59.0668C71.5756 58.7802 71.6733 58.4318 71.6733 58.0214C71.6733 57.6567 71.5951 57.331 71.4388 57.0444C71.2825 56.7578 71.0545 56.5331 70.7549 56.3703C70.4553 56.201 70.0971 56.1163 69.6802 56.1163C69.0484 56.1163 68.5599 56.2889 68.2147 56.6341C67.8695 56.9728 67.6969 57.458 67.6969 58.0898C67.6969 58.65 67.8597 59.0929 68.1854 59.4185C68.5176 59.7377 68.9996 59.8972 69.6314 59.8972ZM75.5041 60.4834C74.8658 60.4834 74.3643 60.3434 73.9996 60.0633C73.6413 59.7833 73.4622 59.3957 73.4622 58.9007C73.4622 58.4122 73.6511 58.0247 74.0289 57.7381C74.4132 57.4515 74.9342 57.3082 75.5921 57.3082C75.9764 57.3082 76.315 57.3603 76.6081 57.4645C76.9078 57.5688 77.139 57.7088 77.3018 57.8846V57.2594C77.3018 56.8881 77.1781 56.6048 76.9306 56.4094C76.6896 56.214 76.3346 56.1163 75.8656 56.1163C75.2599 56.1163 74.7356 56.2596 74.2927 56.5462C74.1819 56.6113 74.0908 56.6439 74.0191 56.6439C73.954 56.6439 73.8889 56.6178 73.8237 56.5657C73.7521 56.5071 73.7163 56.4322 73.7163 56.341C73.7163 56.2433 73.7586 56.1619 73.8433 56.0968C74.0777 55.9144 74.3741 55.7711 74.7323 55.6669C75.0971 55.5561 75.4683 55.5008 75.8461 55.5008C76.5365 55.5008 77.0706 55.6571 77.4484 55.9697C77.8326 56.2824 78.0248 56.722 78.0248 57.2887V60.1024C78.0248 60.3564 77.9075 60.4834 77.6731 60.4834C77.5689 60.4834 77.4842 60.4509 77.419 60.3857C77.3539 60.3141 77.3213 60.2229 77.3213 60.1122V59.7605C76.9175 60.2425 76.3118 60.4834 75.5041 60.4834ZM75.5921 59.8875C76.1001 59.8875 76.5137 59.793 76.8329 59.6041C77.152 59.4088 77.3116 59.158 77.3116 58.8519C77.3116 58.5457 77.1618 58.3113 76.8622 58.1484C76.5691 57.9791 76.1522 57.8944 75.6116 57.8944C75.1557 57.8944 74.804 57.9823 74.5565 58.1582C74.309 58.3275 74.1852 58.5751 74.1852 58.9007C74.1852 59.2199 74.3057 59.4641 74.5467 59.6335C74.7877 59.8028 75.1361 59.8875 75.5921 59.8875ZM79.9023 60.4834C79.7916 60.4834 79.7036 60.4509 79.6385 60.3857C79.5799 60.3141 79.5506 60.2164 79.5506 60.0926V53.3612C79.5506 53.2374 79.5799 53.143 79.6385 53.0778C79.7036 53.0062 79.7916 52.9704 79.9023 52.9704C80.013 52.9704 80.1009 53.0062 80.1661 53.0778C80.2312 53.143 80.2638 53.2374 80.2638 53.3612V60.0926C80.2638 60.2099 80.2312 60.3043 80.1661 60.376C80.1075 60.4476 80.0195 60.4834 79.9023 60.4834ZM87.3319 60.4834C86.7066 60.4834 86.1302 60.3792 85.6026 60.1708C85.0816 59.9559 84.6745 59.6628 84.3814 59.2915C84.3293 59.2264 84.3032 59.158 84.3032 59.0863C84.3032 58.9952 84.3521 58.9072 84.4498 58.8226C84.5019 58.7835 84.5573 58.7639 84.6159 58.7639C84.7331 58.7639 84.8373 58.8193 84.9285 58.93C85.1956 59.2231 85.531 59.4511 85.9348 59.6139C86.3452 59.7702 86.8109 59.8484 87.3319 59.8484C87.9051 59.8484 88.348 59.7442 88.6606 59.5358C88.9733 59.3208 89.1296 59.018 89.1296 58.6272C89.1296 58.2885 88.9765 58.0149 88.6704 57.8065C88.3708 57.5981 87.8595 57.4124 87.1365 57.2496C86.1921 57.0412 85.5115 56.7806 85.0946 56.468C84.6843 56.1489 84.4791 55.7288 84.4791 55.2077C84.4791 54.6671 84.7071 54.2405 85.163 53.9278C85.6254 53.6087 86.2475 53.4491 87.0291 53.4491C87.6218 53.4491 88.1558 53.5533 88.6313 53.7617C89.1133 53.9702 89.4552 54.2502 89.6572 54.602C89.6962 54.6671 89.7158 54.729 89.7158 54.7876C89.7158 54.8918 89.6604 54.983 89.5497 55.0611C89.5041 55.0872 89.452 55.1002 89.3934 55.1002C89.2501 55.1002 89.1394 55.0449 89.0612 54.9341C88.8723 54.6606 88.6053 54.4521 88.2601 54.3089C87.9149 54.1591 87.5045 54.0841 87.0291 54.0841C85.8241 54.0841 85.2216 54.4587 85.2216 55.2077C85.2216 55.4357 85.2835 55.6278 85.4072 55.7841C85.531 55.9339 85.7297 56.0707 86.0032 56.1944C86.2833 56.3117 86.6708 56.4289 87.1658 56.5462C88.1298 56.7741 88.8235 57.0509 89.2468 57.3766C89.6702 57.6958 89.8819 58.1126 89.8819 58.6272C89.8819 59.2003 89.6506 59.653 89.1882 59.9852C88.7323 60.3174 88.1135 60.4834 87.3319 60.4834ZM93.4371 60.4834C92.8705 60.4834 92.3852 60.3695 91.9814 60.1415C91.5776 59.9135 91.2715 59.6107 91.063 59.2329C90.8611 58.8486 90.7602 58.435 90.7602 57.9921C90.7602 57.5492 90.8611 57.1389 91.063 56.7611C91.2715 56.3768 91.5776 56.0707 91.9814 55.8427C92.3852 55.6148 92.8705 55.5008 93.4371 55.5008C94.0038 55.5008 94.4858 55.6148 94.8831 55.8427C95.2869 56.0707 95.5898 56.3768 95.7917 56.7611C96.0001 57.1389 96.1043 57.5492 96.1043 57.9921C96.1043 58.435 96.0001 58.8486 95.7917 59.2329C95.5898 59.6107 95.2869 59.9135 94.8831 60.1415C94.4858 60.3695 94.0038 60.4834 93.4371 60.4834ZM93.4371 59.8679C94.0233 59.8679 94.4923 59.7018 94.844 59.3697C95.2022 59.0375 95.3813 58.5783 95.3813 57.9921C95.3813 57.4059 95.2022 56.9467 94.844 56.6146C94.4923 56.2824 94.0233 56.1163 93.4371 56.1163C92.8444 56.1163 92.3689 56.2824 92.0107 56.6146C91.659 56.9467 91.4831 57.4059 91.4831 57.9921C91.4831 58.5783 91.659 59.0375 92.0107 59.3697C92.3689 59.7018 92.8444 59.8679 93.4371 59.8679ZM97.782 60.4834C97.6713 60.4834 97.5833 60.4509 97.5182 60.3857C97.4596 60.3141 97.4303 60.2164 97.4303 60.0926V53.3612C97.4303 53.2374 97.4596 53.143 97.5182 53.0778C97.5833 53.0062 97.6713 52.9704 97.782 52.9704C97.8927 52.9704 97.9806 53.0062 98.0458 53.0778C98.1109 53.143 98.1435 53.2374 98.1435 53.3612V60.0926C98.1435 60.2099 98.1109 60.3043 98.0458 60.376C97.9872 60.4476 97.8992 60.4834 97.782 60.4834ZM101.718 60.4834C101.08 60.4834 100.578 60.3011 100.214 59.9363C99.8553 59.5716 99.6762 59.0635 99.6762 58.4122V55.8916C99.6762 55.7678 99.7088 55.6734 99.7739 55.6083C99.839 55.5366 99.927 55.5008 100.038 55.5008C100.148 55.5008 100.233 55.5366 100.292 55.6083C100.357 55.6734 100.389 55.7678 100.389 55.8916V58.4122C100.389 58.8747 100.513 59.2329 100.761 59.4869C101.008 59.7409 101.353 59.8679 101.796 59.8679C102.148 59.8679 102.461 59.7898 102.734 59.6335C103.008 59.4771 103.219 59.2589 103.369 58.9789C103.526 58.6988 103.604 58.3764 103.604 58.0117V55.8916C103.604 55.7678 103.633 55.6734 103.692 55.6083C103.757 55.5366 103.848 55.5008 103.965 55.5008C104.076 55.5008 104.161 55.5366 104.219 55.6083C104.284 55.6734 104.317 55.7678 104.317 55.8916V60.0926C104.317 60.2164 104.284 60.3141 104.219 60.3857C104.161 60.4509 104.076 60.4834 103.965 60.4834C103.848 60.4834 103.757 60.4476 103.692 60.376C103.633 60.3043 103.604 60.2099 103.604 60.0926V59.5162C103.363 59.8289 103.083 60.0698 102.763 60.2392C102.444 60.402 102.096 60.4834 101.718 60.4834ZM108.951 59.4185C109.023 59.4771 109.059 59.5455 109.059 59.6237C109.059 59.6888 109.029 59.767 108.971 59.8582C108.834 60.0471 108.645 60.2001 108.404 60.3174C108.163 60.4281 107.915 60.4834 107.661 60.4834C107.232 60.4834 106.893 60.3564 106.645 60.1024C106.398 59.8484 106.274 59.4999 106.274 59.057V56.1944H105.747C105.486 56.1944 105.356 56.0935 105.356 55.8916C105.356 55.8004 105.388 55.7288 105.453 55.6766C105.525 55.6245 105.623 55.5985 105.747 55.5985H106.274V53.9278C106.274 53.8041 106.303 53.7096 106.362 53.6445C106.427 53.5729 106.518 53.537 106.636 53.537C106.746 53.537 106.831 53.5729 106.89 53.6445C106.955 53.7096 106.987 53.8041 106.987 53.9278V55.5985H108.316C108.433 55.5985 108.524 55.6245 108.59 55.6766C108.661 55.7222 108.697 55.7939 108.697 55.8916C108.697 56.0935 108.57 56.1944 108.316 56.1944H106.987V59.1157C106.987 59.6172 107.222 59.8679 107.691 59.8679C107.841 59.8679 107.977 59.8386 108.101 59.78C108.225 59.7214 108.349 59.6269 108.472 59.4967C108.57 59.3925 108.664 59.3404 108.756 59.3404C108.814 59.3404 108.879 59.3664 108.951 59.4185ZM110.633 54.4652C110.49 54.4652 110.366 54.4196 110.262 54.3284C110.164 54.2307 110.115 54.1135 110.115 53.9767C110.115 53.8399 110.164 53.7227 110.262 53.625C110.366 53.5273 110.49 53.4784 110.633 53.4784C110.776 53.4784 110.9 53.5305 111.004 53.6347C111.115 53.7324 111.17 53.8464 111.17 53.9767C111.17 54.1069 111.115 54.2209 111.004 54.3186C110.9 54.4163 110.776 54.4652 110.633 54.4652ZM110.633 60.4834C110.522 60.4834 110.434 60.4509 110.369 60.3857C110.311 60.3141 110.281 60.2164 110.281 60.0926V55.8916C110.281 55.7678 110.311 55.6734 110.369 55.6083C110.434 55.5366 110.522 55.5008 110.633 55.5008C110.75 55.5008 110.838 55.5366 110.897 55.6083C110.962 55.6734 110.994 55.7678 110.994 55.8916V60.0926C110.994 60.2164 110.962 60.3141 110.897 60.3857C110.838 60.4509 110.75 60.4834 110.633 60.4834ZM114.981 60.4834C114.414 60.4834 113.929 60.3695 113.525 60.1415C113.121 59.9135 112.815 59.6107 112.606 59.2329C112.405 58.8486 112.304 58.435 112.304 57.9921C112.304 57.5492 112.405 57.1389 112.606 56.7611C112.815 56.3768 113.121 56.0707 113.525 55.8427C113.929 55.6148 114.414 55.5008 114.981 55.5008C115.547 55.5008 116.029 55.6148 116.426 55.8427C116.83 56.0707 117.133 56.3768 117.335 56.7611C117.544 57.1389 117.648 57.5492 117.648 57.9921C117.648 58.435 117.544 58.8486 117.335 59.2329C117.133 59.6107 116.83 59.9135 116.426 60.1415C116.029 60.3695 115.547 60.4834 114.981 60.4834ZM114.981 59.8679C115.567 59.8679 116.036 59.7018 116.387 59.3697C116.746 59.0375 116.925 58.5783 116.925 57.9921C116.925 57.4059 116.746 56.9467 116.387 56.6146C116.036 56.2824 115.567 56.1163 114.981 56.1163C114.388 56.1163 113.912 56.2824 113.554 56.6146C113.202 56.9467 113.027 57.4059 113.027 57.9921C113.027 58.5783 113.202 59.0375 113.554 59.3697C113.912 59.7018 114.388 59.8679 114.981 59.8679ZM118.987 60.4834C118.876 60.4834 118.788 60.4509 118.723 60.3857C118.664 60.3141 118.635 60.2164 118.635 60.0926V55.8916C118.635 55.7678 118.664 55.6734 118.723 55.6083C118.782 55.5366 118.87 55.5008 118.987 55.5008C119.098 55.5008 119.182 55.5366 119.241 55.6083C119.306 55.6734 119.339 55.7678 119.339 55.8916V56.468C119.58 56.1489 119.869 55.9079 120.208 55.745C120.553 55.5822 120.931 55.5008 121.341 55.5008C121.96 55.5008 122.436 55.6734 122.768 56.0186C123.107 56.3638 123.276 56.8588 123.276 57.5036V60.0926C123.276 60.2164 123.243 60.3141 123.178 60.3857C123.113 60.4509 123.025 60.4834 122.914 60.4834C122.797 60.4834 122.709 60.4509 122.651 60.3857C122.592 60.3141 122.563 60.2164 122.563 60.0926V57.5036C122.563 56.5787 122.126 56.1163 121.254 56.1163C120.68 56.1163 120.218 56.2856 119.866 56.6243C119.521 56.963 119.348 57.4124 119.348 57.9726V60.0926C119.348 60.2099 119.316 60.3043 119.251 60.376C119.192 60.4476 119.104 60.4834 118.987 60.4834Z" fill="white"/>
<line y1="56.125" x2="42" y2="56.125" stroke="white" stroke-width="2"/>
</svg>
